# xmcd
#
# Track frame offsets:
#  150
#  32400
#  57407
#  77117
#  102617
#  128665
#  155332
#  180350
#  208647
#  236132
#
# Disc length: 3320 seconds
#
# Revision: 0
# Processed by: cddbd v1.4PL0 Copyright (c) Steve Scherf et al.
# Submitted via: AltoMP3_Maker 3.0
#
DISCID=7e0cf60a
DTITLE=Tinh Khuc Tien Chien 5 - Misc
DYEAR=1900
DGENRE=
TTITLE0=Goi Gio Cho May Ngan Bay
TTITLE1=Du Am
TTITLE2=Chieu
TTITLE3=Mua Xuan Dau Tien
TTITLE4=Mai Am Gia Dinh
TTITLE5=Truong Chi
TTITLE6=Truong Ca Tien Chien Song Lo
TTITLE7=Giot Mua Thu
TTITLE8=Chieu Mua Nam Xua
TTITLE9=Nhac Em Diu
EXTD=
EXTT0=
EXTT1=
EXTT2=
EXTT3=
EXTT4=
EXTT5=
EXTT6=
EXTT7=
EXTT8=
EXTT9=
PLAYORDER=
